<?xml version="1.0" encoding="UTF-8"?>
<svg version="1.1" xmlns="http://www.w3.org/2000/svg" width="512" height="512">
<path d="M0 0 C11.71455695 11.1288291 15.19002004 26.32611044 15.59570312 42.0949707 C15.63857099 45.70376087 15.64052957 49.31214776 15.63037109 52.92114258 C15.62503648 55.17210707 15.63032887 57.42286988 15.63671875 59.67382812 C15.6365366 61.14322973 15.63524628 62.61263165 15.6328125 64.08203125 C15.63266144 64.80046707 15.63251038 65.51890289 15.63235474 66.2591095 C15.60305192 70.50098211 15.25445999 74.58175914 14.6875 78.78125 C14.07999881 85.24931846 16.2984432 89.49992212 19.375 95.0625 C28.52827858 112.93325615 34.43085669 131.79669652 40.3125 150.9375 C40.65909668 152.06325943 40.65909668 152.06325943 41.01269531 153.21176147 C43.45244059 161.16940169 45.77046538 169.14813471 47.82421875 177.21484375 C47.99508499 177.87722549 48.16595123 178.53960724 48.34199524 179.22206116 C49.13641727 182.42337435 49.5 185.04200015 49.5 188.375 C50.51578125 188.47296875 51.5315625 188.5709375 52.578125 188.671875 C72.82367153 190.79401343 91.25819824 198.30313749 104.8515625 214.109375 C114.32785165 226.67344376 117.88505258 237.8281808 117.8125 253.4375 C117.80758545 254.70247314 117.8026709 255.96744629 117.79760742 257.27075195 C117.33219202 296.0959435 110.97894527 336.37749263 93.5 371.375 C93.12649414 372.14215332 92.75298828 372.90930664 92.36816406 373.69970703 C84.83801864 389.09543733 75.80298923 402.45729803 64.5 415.375 C64.17 446.725 63.84 478.075 63.5 510.375 C-15.37 510.375 -94.24 510.375 -175.5 510.375 C-175.83 487.275 -176.16 464.175 -176.5 440.375 C-179.47 437.405 -182.44 434.435 -185.5 431.375 C-187.41128856 429.09977767 -189.20440119 426.89496356 -190.9375 424.5 C-191.62162964 423.55471436 -191.62162964 423.55471436 -192.31958008 422.59033203 C-202.28374114 408.41869865 -208.85651754 392.66472763 -214.5 376.375 C-214.82178223 375.45605957 -215.14356445 374.53711914 -215.47509766 373.59033203 C-221.60161989 355.89318251 -226.05810977 337.81100245 -230.46533203 319.63012695 C-232.70914793 310.38383843 -234.97471519 301.14428648 -237.52856445 291.97802734 C-245.02551036 264.75825238 -246.2261991 234.21575638 -233.5 208.375 C-227.23521396 197.41897747 -219.09868891 190.18437236 -206.9375 186.625 C-195.90236694 185.49319148 -185.81856154 188.30709946 -176.5 194.375 C-176.4071875 192.7971875 -176.4071875 192.7971875 -176.3125 191.1875 C-174.64610053 178.26719725 -167.68880144 165.01743728 -157.55078125 156.80859375 C-148.91978579 150.77511692 -140.95134368 149.53463148 -130.5 150.375 C-122.84782647 152.13008567 -116.81714206 155.86275567 -110.5 160.375 C-109.84 160.705 -109.18 161.035 -108.5 161.375 C-108.37995605 160.78299805 -108.25991211 160.19099609 -108.13623047 159.58105469 C-103.47641436 136.82992993 -98.03910538 112.35048041 -87.06811523 91.67675781 C-83.05905622 84.06264813 -83.33916029 78.62207088 -84.6875 70.25 C-90.82107448 24.16240713 -90.82107448 24.16240713 -79.83203125 8.890625 C-76.8527363 5.50069409 -73.70876063 2.70112573 -69.171875 2.03125 C-57.94842356 1.43106543 -48.95675495 6.23022759 -40.5 13.375 C-37.15223281 11.8845557 -34.65752316 9.93262966 -31.875 7.5625 C-22.45821931 0.01532832 -12.0129559 -5.57744381 0 0 Z " fill="#FECEAD" transform="translate(318.5,1.625)"/>
<path d="M0 0 C11.71455695 11.1288291 15.19002004 26.32611044 15.59570312 42.0949707 C15.63857099 45.70376087 15.64052957 49.31214776 15.63037109 52.92114258 C15.62503648 55.17210707 15.63032887 57.42286988 15.63671875 59.67382812 C15.6365366 61.14322973 15.63524628 62.61263165 15.6328125 64.08203125 C15.63266144 64.80046707 15.63251038 65.51890289 15.63235474 66.2591095 C15.60305192 70.50098211 15.25445999 74.58175914 14.6875 78.78125 C14.07999881 85.24931846 16.2984432 89.49992212 19.375 95.0625 C28.52827858 112.93325615 34.43085669 131.79669652 40.3125 150.9375 C40.65909668 152.06325943 40.65909668 152.06325943 41.01269531 153.21176147 C43.45244059 161.16940169 45.77046538 169.14813471 47.82421875 177.21484375 C47.99508499 177.87722549 48.16595123 178.53960724 48.34199524 179.22206116 C49.13641727 182.42337435 49.5 185.04200015 49.5 188.375 C50.51578125 188.47296875 51.5315625 188.5709375 52.578125 188.671875 C72.82367153 190.79401343 91.25819824 198.30313749 104.8515625 214.109375 C114.32785165 226.67344376 117.88505258 237.8281808 117.8125 253.4375 C117.80758545 254.70247314 117.8026709 255.96744629 117.79760742 257.27075195 C117.33219202 296.0959435 110.97894527 336.37749263 93.5 371.375 C93.12649414 372.14215332 92.75298828 372.90930664 92.36816406 373.69970703 C85.0393244 388.6838584 76.05798729 405.07281144 63.5 416.375 C62.84 416.375 62.18 416.375 61.5 416.375 C61.28730469 416.92027344 61.07460938 417.46554687 60.85546875 418.02734375 C59.01638557 421.21261462 56.50680352 423.4875182 53.8125 425.9375 C53.23798096 426.46126221 52.66346191 426.98502441 52.0715332 427.5246582 C32.08869031 445.41480332 8.95475498 457.05648021 -16.75 464.375 C-18.33929321 464.82963623 -18.33929321 464.82963623 -19.96069336 465.29345703 C-25.29301238 466.74489782 -29.97162775 467.7498049 -35.5 467.375 C-35.83 465.725 -36.16 464.075 -36.5 462.375 C-33.20099035 460.98943067 -29.98498969 459.91530948 -26.5078125 459.078125 C-15.09291335 456.26114554 -4.22336724 453.27406048 6.5 448.375 C7.13421875 448.08931152 7.7684375 447.80362305 8.421875 447.50927734 C23.27530343 440.74409624 36.3493198 431.97698897 48.046875 420.58984375 C50.5 418.375 50.5 418.375 52.703125 417.31640625 C55.0702898 416.07621774 55.3835116 414.76871637 56.5 412.375 C57.8172221 410.86284017 59.17658717 409.38696439 60.5625 407.9375 C94.02467888 371.3114292 108.06259142 316.37269627 109.42822266 267.91845703 C109.480529 266.06496215 109.54425399 264.21177908 109.61474609 262.35888672 C110.61035435 244.61919998 110.61035435 244.61919998 104.5 228.375 C103.97277344 227.529375 103.44554687 226.68375 102.90234375 225.8125 C101.91031204 224.29154721 100.89092363 222.78768516 99.83203125 221.3125 C98.5 219.375 98.5 219.375 97.57421875 217.25 C96.21230969 214.87284965 94.96983714 214.48326025 92.5 213.375 C91.10435772 212.29704283 89.73055104 211.19045852 88.375 210.0625 C73.14492437 198.126083 53.44290484 194.81527837 34.5 196.375 C7.180408 200.05426394 -28.29527743 209.80642562 -46.125 232.625 C-46.93781155 233.86135492 -47.73262439 235.10994238 -48.5 236.375 C-49.428125 237.7053125 -49.428125 237.7053125 -50.375 239.0625 C-52.39976548 245.02430948 -53.07382054 251.93156996 -50.3984375 257.78515625 C-48.90519143 259.85733462 -47.3312704 261.59686915 -45.5 263.375 C-45.005 263.90480469 -44.51 264.43460937 -44 264.98046875 C-26.35377449 282.14142305 3.02715787 281.6986073 25.875 281.4375 C28.83109813 281.40985269 31.78714944 281.38522763 34.74331665 281.36631775 C36.56739777 281.35407365 38.39145248 281.33648269 40.21542358 281.31300354 C42.31031663 281.29616265 44.40551857 281.33018896 46.5 281.375 C48.11109218 282.98609218 47.972921 284.96912881 48.3125 287.1875 C50.2101969 297.74087916 53.08363408 305.66979731 59.98828125 314 C61.5 316.375 61.5 316.375 61.23046875 318.6875 C60.98941406 319.244375 60.74835938 319.80125 60.5 320.375 C59.18 320.705 57.86 321.035 56.5 321.375 C47.96430245 311.97273417 41.94486742 301.27615516 41.5 288.375 C39.9840625 288.61283203 39.9840625 288.61283203 38.4375 288.85546875 C33.16329458 289.51706174 27.89542616 289.52832351 22.58618164 289.61376953 C-4.99956778 290.07370529 -28.26671734 297.04033981 -49.5 315.375 C-50.20125 315.97957031 -50.9025 316.58414062 -51.625 317.20703125 C-60.31884355 325.27260876 -65.57984152 335.53091534 -69.4921875 346.59765625 C-70.3536665 348.9717321 -71.31515176 351.14940668 -72.5 353.375 C-74.15 353.045 -75.8 352.715 -77.5 352.375 C-77.5 337.11021562 -66.09613386 321.81677759 -55.9375 311.3125 C-44.1497169 299.580707 -28.92345876 292.17585838 -13.5 286.375 C-14.42039062 286.16746094 -15.34078125 285.95992188 -16.2890625 285.74609375 C-30.87467054 282.19623599 -46.88526577 276.35937817 -55.5 263.25 C-59.48331749 255.98713136 -60.88129409 249.00508475 -58.8828125 240.859375 C-52.3937966 222.59825062 -34.5013695 212.02465993 -18.01171875 203.88671875 C0.48763202 195.19251546 21.99769323 189.00373086 42.5 189.375 C39.25979967 175.89806057 35.69673114 162.58631791 31.5 149.375 C31.10506348 148.12895996 30.71012695 146.88291992 30.30322266 145.59912109 C24.94228501 128.76566801 19.44923677 112.19828729 11.5 96.375 C11.10458008 95.5799707 10.70916016 94.78494141 10.30175781 93.96582031 C-1.54045952 70.32834132 -15.97369183 48.32476664 -34.5 29.375 C-35.27859375 28.53453125 -36.0571875 27.6940625 -36.859375 26.828125 C-42.14025653 21.24761899 -47.80891265 17.13873664 -54.5 13.375 C-55.139375 13.01277344 -55.77875 12.65054687 -56.4375 12.27734375 C-60.91602956 10.04844594 -65.61031746 9.38756896 -70.5 10.375 C-75.62254615 14.68872307 -77.37718671 21.97001743 -78.5 28.375 C-80.34103559 56.06163594 -75.7561134 83.49840756 -69.5 110.375 C-69.3246875 111.12910156 -69.149375 111.88320312 -68.96875 112.66015625 C-67.88639834 117.25169494 -66.70750481 121.81482963 -65.5 126.375 C-65.32533203 127.03569489 -65.15066406 127.69638977 -64.97070312 128.37710571 C-61.6413355 140.87634499 -57.67204197 153.08896888 -53.42773438 165.30395508 C-52.62603828 167.6179198 -51.83586534 169.93558387 -51.046875 172.25390625 C-50.80523621 172.93844376 -50.56359741 173.62298126 -50.31463623 174.32826233 C-48.62863348 179.30998891 -47.90208052 184.13707979 -47.5 189.375 C-49.15 189.375 -50.8 189.375 -52.5 189.375 C-65.27205832 159.55782909 -74.03185731 128.12770047 -80.5 96.375 C-88.08802473 114.90594603 -94.86893327 133.53979838 -98.9375 153.1875 C-99.10161377 153.96891357 -99.26572754 154.75032715 -99.43481445 155.55541992 C-101.36969015 165.42390576 -101.36969015 165.42390576 -99.25 174.94140625 C-98.6725 175.60011719 -98.095 176.25882813 -97.5 176.9375 C-85.5204745 192.43328298 -80.53357852 212.37413996 -77.5 231.375 C-77.21962891 232.93541016 -77.21962891 232.93541016 -76.93359375 234.52734375 C-74.82693287 253.22158668 -75.62028662 273.4290922 -81.5 291.375 C-81.83773437 292.42429687 -82.17546875 293.47359375 -82.5234375 294.5546875 C-86.74173699 306.58674981 -93.09913812 316.10085479 -104.32421875 322.3984375 C-111.33475209 325.60241291 -119.58972682 325.76655629 -126.79296875 323.203125 C-132.27925596 320.55880272 -137.07324795 317.55582138 -141.5 313.375 C-141.65855469 314.07882812 -141.81710938 314.78265625 -141.98046875 315.5078125 C-145.83951748 331.83947729 -150.83335963 347.61416384 -165.625 357.125 C-172.76606669 361.51522777 -181.24442097 361.58000845 -189.328125 359.7265625 C-195.58013006 357.42629649 -200.53552877 353.75169231 -205.5 349.375 C-206.15613281 348.81296875 -206.81226563 348.2509375 -207.48828125 347.671875 C-218.20172709 337.79575258 -224.82710076 324.57287612 -230.5 311.375 C-230.94988281 310.40433594 -231.39976562 309.43367188 -231.86328125 308.43359375 C-244.10340211 281.18700893 -247.71077766 245.77649196 -237.49902344 217.37548828 C-232.85954558 205.37151983 -225.78433681 194.55906187 -213.8125 189 C-203.00950166 184.68617472 -194.18151985 186.36265244 -183.5 190.375 C-181.01614295 191.57634263 -178.81636525 192.86666914 -176.5 194.375 C-176.4071875 192.7971875 -176.4071875 192.7971875 -176.3125 191.1875 C-174.64610053 178.26719725 -167.68880144 165.01743728 -157.55078125 156.80859375 C-148.91978579 150.77511692 -140.95134368 149.53463148 -130.5 150.375 C-122.84782647 152.13008567 -116.81714206 155.86275567 -110.5 160.375 C-109.84 160.705 -109.18 161.035 -108.5 161.375 C-108.37995605 160.78299805 -108.25991211 160.19099609 -108.13623047 159.58105469 C-103.47641436 136.82992993 -98.03910538 112.35048041 -87.06811523 91.67675781 C-83.05905622 84.06264813 -83.33916029 78.62207088 -84.6875 70.25 C-90.82107448 24.16240713 -90.82107448 24.16240713 -79.83203125 8.890625 C-76.8527363 5.50069409 -73.70876063 2.70112573 -69.171875 2.03125 C-57.94842356 1.43106543 -48.95675495 6.23022759 -40.5 13.375 C-37.15223281 11.8845557 -34.65752316 9.93262966 -31.875 7.5625 C-22.45821931 0.01532832 -12.0129559 -5.57744381 0 0 Z " fill="#321610" transform="translate(318.5,1.625)"/>
<path d="M0 0 C20.1818522 11.41867953 30.59121499 33.06247091 36.8125 54.5625 C44.11563562 81.70582072 44.39981495 115.96806354 31.8125 141.5625 C27.31593648 149.16447466 23.04716197 154.28656001 14.9375 157.8125 C6.8544207 159.75243903 2.07174925 158.3559345 -5.16796875 154.44921875 C-25.67910502 141.63307539 -37.92213485 115.45514713 -43.4765625 92.515625 C-48.04551759 72.0634564 -50.9559495 47.73138784 -44.1875 27.5625 C-43.8471875 26.53769531 -43.506875 25.51289063 -43.15625 24.45703125 C-39.01851244 13.42772405 -32.83530203 4.06491446 -22.1875 -1.4375 C-14.76709866 -3.91096711 -7.03739317 -3.29991752 0 0 Z " fill="#FECEAD" transform="translate(194.1875,161.4375)"/>
<path d="M0 0 C0.61617187 0.2882666 1.23234375 0.5765332 1.8671875 0.87353516 C3.9975307 2.07455943 5.43540672 3.11198563 7 5 C7.95347132 8.66657281 7.83240114 12.2306684 7.75 16 C7.77153138 18.16546463 7.80164226 20.33085905 7.83984375 22.49609375 C7.85644043 23.58519043 7.87303711 24.67428711 7.89013672 25.79638672 C8.81291356 52.70455936 17.6404224 82.61921959 34.5625 103.875 C37.07445558 107.2144233 38.56154709 109.26578698 38.1875 113.5 C37.84101877 115.01216229 37.44183758 116.51290095 37 118 C36.80535156 118.85207031 36.61070312 119.70414062 36.41015625 120.58203125 C32.95720689 134.86375672 27.08617391 148.22252813 14.140625 156.13671875 C8.91029828 158.24602934 2.66289782 157.8067014 -2.65625 156.1953125 C-21.71833107 147.4484715 -33.82043128 126.13677428 -40.859375 107.19921875 C-42.38540793 102.84094516 -43.72856852 98.43839137 -45 94 C-45.31582031 92.93394531 -45.63164063 91.86789062 -45.95703125 90.76953125 C-52.83671659 65.65698527 -53.50232491 35.64683253 -40.58984375 12.46875 C-30.98587168 -2.89760531 -16.50664744 -8.11383093 0 0 Z " fill="#FDCDAD" transform="translate(133,199)"/>
<path d="M0 0 C7.17578393 4.2523164 9.51457098 10.74311501 11.57501221 18.44142151 C14.23697209 29.06573322 14.47175478 39.15990534 14.25 50.0625 C14.22986468 51.81573435 14.21162658 53.56899155 14.1953125 55.32226562 C14.15196411 59.54875912 14.08334449 63.7741139 14 68 C13.34 68 12.68 68 12 68 C10.43802073 65.673843 8.98916418 63.34518504 7.5625 60.9375 C-1.8922723 45.40751142 -12.75560574 30.46898996 -26.2265625 18.19140625 C-28 16 -28 16 -28.09765625 14 C-26.50866707 11.10475992 -24.3870578 9.49089225 -21.8125 7.4375 C-20.87019531 6.67308594 -19.92789062 5.90867187 -18.95703125 5.12109375 C-12.73013738 0.65451069 -7.62176162 -1.29098242 0 0 Z " fill="#FBCBAB" transform="translate(313,7)"/>
</svg>
